<?xml version="1.0" encoding="utf-8"?>
<svg version="1.1" id="Layer_1" xmlns="http://www.w3.org/2000/svg" xmlns:xlink="http://www.w3.org/1999/xlink" x="0px" y="0px" width="113.014px" height="122.881px" viewBox="0 0 113.014 122.881">
  <g>
    <path fill="#22D3EE" d="M44.131,102.058c-1.138,0.025-2.139-0.806-2.299-1.961c-0.167-1.201,0.64-2.313,1.817-2.542 c-1.304-7.368-4.851-11.429-8.601-15.72c-2.919-3.341-5.95-6.81-8.339-11.919c-2.354-5.034-3.643-10.23-3.596-15.628 c0.046-5.4,1.425-10.961,4.403-16.714c0.019-0.036,0.039-0.072,0.059-0.107l-0.001,0c3.912-6.62,9.377-11.038,15.468-13.524 c5.111-2.086,10.662-2.798,16.101-2.3c5.422,0.497,10.729,2.197,15.365,4.938c5.905,3.49,10.75,8.668,13.419,15.206 c1.444,3.539,2.421,7.493,2.539,11.816c0.119,4.312-0.621,8.959-2.608,13.879c-2.663,6.591-6.18,10.682-9.473,14.513 c-3.031,3.527-5.854,6.813-7.418,11.839c0.886,0.211,1.595,0.945,1.727,1.9c0.173,1.244-0.696,2.391-1.939,2.563l-0.768,0.108 c-0.141,1.095-0.232,2.263-0.27,3.515l0.252-0.036c1.243-0.172,2.391,0.697,2.563,1.94s-0.696,2.391-1.939,2.563l-0.778,0.11 c0.011,0.15,0.02,0.301,0.031,0.454l0.001-0.001c0.069,0.88,0.076,1.729,0.027,2.545l0.131-0.016 c1.248-0.152,2.384,0.735,2.536,1.984c0.152,1.248-0.736,2.384-1.984,2.536l-1.682,0.206c-1.197,3.112-3.336,5.476-5.866,6.945 c-1.738,1.01-3.667,1.594-5.61,1.71c-1.973,0.117-3.958-0.246-5.777-1.135c-2.084-1.019-3.943-2.71-5.293-5.139 c-0.651-0.333-1.13-0.973-1.226-1.753c-0.037-0.308-0.012-0.608,0.067-0.889c-0.39-1.156-0.685-2.431-0.869-3.827l-0.069,0.01 c-1.243,0.172-2.391-0.696-2.563-1.94c-0.172-1.242,0.696-2.39,1.939-2.563l0.542-0.076 C44.188,104.317,44.18,103.155,44.131,102.058L44.131,102.058z M58.237,66.07c0,0.598-0.422,0.984-0.967,1.143 c-0.193,0.053-0.405,0.088-0.616,0.088s-0.422-0.035-0.615-0.088c-0.545-0.158-0.967-0.545-0.967-1.143l-2.022-23.124 c-0.083-2.897,7.122-2.916,7.208-0.018L58.237,66.07L58.237,66.07z M54.316,72.838c-0.123-0.298-0.193-0.633-0.193-0.967 c0-0.352,0.07-0.667,0.193-0.967c0.124-0.299,0.317-0.58,0.563-0.826c0.247-0.246,0.527-0.439,0.827-0.563 c0.299-0.123,0.633-0.193,0.967-0.193c0.352,0,0.668,0.07,0.985,0.193c0.299,0.123,0.563,0.299,0.809,0.545 c0,0,0.018,0,0.018,0.018c0.246,0.246,0.439,0.527,0.563,0.826c0.123,0.3,0.193,0.633,0.193,0.967c0,0.352-0.07,0.669-0.193,0.967 c-0.123,0.3-0.316,0.581-0.563,0.827s-0.527,0.439-0.826,0.563c-0.299,0.122-0.633,0.193-0.967,0.193 c-0.352,0-0.668-0.071-0.967-0.193c-0.299-0.123-0.562-0.299-0.809-0.545c0,0-0.018,0-0.018-0.018 c-0.246-0.247-0.439-0.527-0.563-0.827H54.316L54.316,72.838z M2.181,58.856c-1.167,0.037-2.143-0.88-2.18-2.047 c-0.037-1.167,0.88-2.143,2.047-2.18l8.702-0.3c1.167-0.037,2.143,0.88,2.18,2.047c0.037,1.167-0.88,2.143-2.048,2.18L2.181,58.856 L2.181,58.856z M110.682,50.251c1.162-0.119,2.201,0.728,2.32,1.89c0.119,1.162-0.727,2.202-1.89,2.32l-8.659,0.913 c-1.163,0.119-2.202-0.727-2.32-1.89c-0.119-1.163,0.727-2.202,1.89-2.321L110.682,50.251L110.682,50.251z M94.908,14.783 c0.65-0.97,1.964-1.23,2.935-0.58c0.97,0.65,1.229,1.963,0.58,2.934l-4.836,7.241c-0.65,0.97-1.964,1.23-2.935,0.58 c-0.97-0.65-1.229-1.964-0.58-2.934L94.908,14.783L94.908,14.783z M20.427,6.045c0.97-0.65,2.285-0.391,2.934,0.58 l4.836,7.241c0.65,0.97,0.391,2.285-0.58,2.934c-0.97,0.65-2.285,0.39-2.934-0.58l-4.836-7.241 C19.546,8.008,19.856,6.695,20.427,6.045L20.427,6.045z M0.177,28.559c-0.6-1.048-0.226-2.383,0.822-2.984l8.13-4.658 c1.048-0.601,2.383-0.226,2.984,0.822c0.601,1.048,0.226,2.383-0.822,2.984L3.161,29.381 C2.113,29.982,0.778,29.607,0.177,28.559L0.177,28.559z M110.377,96.951c1.048,0.6,1.422,1.936,0.822,2.984l-4.658,8.13 c-0.601,1.048-1.936,1.422-2.984,0.822c-1.048-0.601-1.422-1.936-0.822-2.984l4.658-8.13 C107.994,96.725,109.33,96.351,110.377,96.951L110.377,96.951z M28.804,112.404c-0.601,1.048-1.936,1.422-2.984,0.822 l-8.13-4.658c-1.048-0.601-1.422-1.936-0.822-2.984c0.601-1.048,1.936-1.422,2.984-0.822l8.13,4.658 C29.03,110.021,29.405,111.356,28.804,112.404L28.804,112.404z"/>
  </g>
</svg>
